<?xml version="1.0" encoding="UTF-8"?>
<svg version="1.1" xmlns="http://www.w3.org/2000/svg" width="512" height="512">
<path d="M0 0 C1.01790619 0.00215515 2.03581238 0.0043103 3.08456421 0.00653076 C17.69363523 0.05620146 32.02575853 0.30709809 46.375 3.3125 C47.34985352 3.51117676 48.32470703 3.70985352 49.32910156 3.91455078 C97.7109774 14.03517194 141.69928269 35.9516877 177.375 70.3125 C178.3640332 71.26068604 178.3640332 71.26068604 179.37304688 72.22802734 C188.86130305 81.37247479 197.6012044 90.66984009 205.375 101.3125 C206.23306152 102.46355017 207.09113451 103.61459177 207.94921875 104.765625 C213.98736829 112.95680614 219.34595521 121.47054105 224.375 130.3125 C224.73948242 130.94430176 225.10396484 131.57610352 225.47949219 132.22705078 C247.08534998 169.97532572 256.85198095 212.74189997 256.6875 255.9375 C256.68534485 256.95540619 256.6831897 257.97331238 256.68096924 259.02206421 C256.63129854 273.63113523 256.38040191 287.96325853 253.375 302.3125 C253.07698486 303.77478027 253.07698486 303.77478027 252.77294922 305.26660156 C242.65232806 353.6484774 220.7358123 397.63678269 186.375 433.3125 C185.74287598 433.97185547 185.11075195 434.63121094 184.45947266 435.31054688 C175.31502521 444.79880305 166.01765991 453.5387044 155.375 461.3125 C154.22394983 462.17056152 153.07290823 463.02863451 151.921875 463.88671875 C143.73224019 469.92427396 135.22961724 475.30707302 126.375 480.3125 C125.66778809 480.7146875 124.96057617 481.116875 124.23193359 481.53125 C101.09654164 494.5566741 75.92537591 503.30551461 49.9375 508.625 C49.21860596 508.77235596 48.49971191 508.91971191 47.7590332 509.0715332 C33.08339502 511.86090125 18.55831162 512.66142619 3.64770508 512.62817383 C0.70811513 512.6250221 -2.2304558 512.64854926 -5.16992188 512.67382812 C-18.54306192 512.71848737 -31.43916711 511.51301542 -44.625 509.3125 C-46.33055054 509.03031616 -46.33055054 509.03031616 -48.07055664 508.74243164 C-91.33802759 500.97044532 -132.38793216 480.98345309 -165.625 452.3125 C-166.37007813 451.67828125 -167.11515625 451.0440625 -167.8828125 450.390625 C-181.38779833 438.57948485 -194.05918743 425.82889772 -204.625 411.3125 C-205.48149066 410.16255169 -206.33826433 409.01281411 -207.1953125 407.86328125 C-213.23534209 399.67315742 -218.61867614 391.16870382 -223.625 382.3125 C-224.0271875 381.60528809 -224.429375 380.89807617 -224.84375 380.16943359 C-237.8691741 357.03404164 -246.61801461 331.86287591 -251.9375 305.875 C-252.08485596 305.15610596 -252.23221191 304.43721191 -252.3840332 303.6965332 C-255.35789088 288.05024391 -255.99800362 272.57681954 -255.9375 256.6875 C-255.93534485 255.66959381 -255.9331897 254.65168762 -255.93096924 253.60293579 C-255.88129854 238.99386477 -255.63040191 224.66174147 -252.625 210.3125 C-252.42632324 209.33764648 -252.22764648 208.36279297 -252.02294922 207.35839844 C-241.90232806 158.9765226 -219.9858123 114.98821731 -185.625 79.3125 C-184.99287598 78.65314453 -184.36075195 77.99378906 -183.70947266 77.31445312 C-174.56502521 67.82619695 -165.26765991 59.0862956 -154.625 51.3125 C-153.47394983 50.45443848 -152.32290823 49.59636549 -151.171875 48.73828125 C-142.98224019 42.70072604 -134.47961724 37.31792698 -125.625 32.3125 C-124.91778809 31.9103125 -124.21057617 31.508125 -123.48193359 31.09375 C-100.34654164 18.0683259 -75.17537591 9.31948539 -49.1875 4 C-48.46860596 3.85264404 -47.74971191 3.70528809 -47.0090332 3.5534668 C-31.36274391 0.57960912 -15.88931954 -0.06050362 0 0 Z " fill="#05B443" transform="translate(255.625,-0.3125)"/>
<path d="M0 0 C1.02319021 0.00184359 2.04638042 0.00368717 3.1005764 0.00558662 C4.27289314 0.0028373 5.44520988 0.00008797 6.65305138 -0.00274467 C7.94561348 0.00444588 9.23817558 0.01163643 10.56990623 0.01904488 C11.93964187 0.01960879 13.30937811 0.01929281 14.67911339 0.01815987 C18.40413541 0.01758459 22.12902937 0.02936704 25.85402155 0.04330778 C29.74444783 0.05578612 33.63487685 0.05698335 37.52532005 0.0593586 C44.89534464 0.06558191 52.2653101 0.08200419 59.63530862 0.10205758 C68.02454621 0.12439015 76.41378657 0.13540335 84.80304646 0.14544845 C102.06309516 0.16636971 119.32308625 0.20156217 136.58308983 0.24609566 C136.58451485 1.25563301 136.58593987 2.26517036 136.58740807 3.30529976 C136.60410844 12.83908848 136.64697476 22.37245202 136.7151804 31.9060154 C136.74940903 36.80687211 136.77455396 41.70741846 136.77864647 46.60840034 C136.78293826 51.34195736 136.81147392 56.07481473 136.85652161 60.80815315 C136.86946848 62.61012376 136.87381427 64.41217821 136.86924362 66.21418953 C136.46260008 78.21836771 136.46260008 78.21836771 141.20902061 88.86731148 C147.01250529 94.69071017 151.21018756 96.38867807 159.45100975 96.45141792 C160.25124062 96.46131752 161.05147148 96.47121712 161.87595177 96.4814167 C164.52179058 96.51301169 167.16764734 96.53778124 169.81355858 96.56250191 C171.6477359 96.58307316 173.4819085 96.60406968 175.31607628 96.62547493 C180.14440143 96.68067789 184.97276924 96.73009502 189.80116844 96.77832222 C194.72786316 96.82855018 199.65449591 96.88422949 204.5811367 96.93945503 C214.24840147 97.0470149 223.91572005 97.14846473 233.58308983 97.24609566 C233.62975127 124.46176173 233.66504988 151.67742184 233.68671417 178.89311981 C233.69703935 191.52902117 233.71112333 204.16489772 233.73396873 216.80078316 C233.75386468 227.81053261 233.76679722 238.82026411 233.77126682 249.83003104 C233.77388065 255.66293919 233.78004991 261.49579594 233.79454994 267.32868767 C233.80807396 272.81313723 233.81232302 278.29751396 233.80930519 283.78197861 C233.80985769 285.80006429 233.81386584 287.81815229 233.82150078 289.8362236 C233.83138106 292.58128617 233.82908421 295.32607001 233.82359886 298.07113838 C233.82942454 298.87852089 233.83525023 299.6859034 233.84125245 300.51775205 C233.81133225 306.01785324 233.81133225 306.01785324 231.58308983 308.24609566 C228.51658392 308.44424467 225.54024732 308.51521486 222.47249413 308.50006294 C221.51664515 308.50318292 220.56079618 308.50630291 219.57598209 308.50951743 C216.35302934 308.5175346 213.13026294 308.51115934 209.90730858 308.50488472 C207.60486808 308.50759293 205.30242844 308.5111529 202.99999046 308.51550484 C196.73155801 308.52465131 190.46319112 308.52107529 184.19475746 308.51474667 C177.64801158 308.50969833 171.10127147 308.51437486 164.55452538 308.517519 C152.85330194 308.52179624 141.1521062 308.51516351 129.45088756 308.50500032 C118.83380733 308.49606438 108.21677083 308.4976163 97.59969139 308.50683784 C85.28099885 308.51753228 72.96233421 308.52152949 60.64363766 308.51561332 C54.11883621 308.51248829 47.5940649 308.51209884 41.06926537 308.51868629 C34.936365 308.5244451 28.80354757 308.52048982 22.6706562 308.50889778 C20.41391577 308.50624332 18.1571684 308.50702957 15.90043068 308.51142311 C12.83141998 308.51684911 9.76267883 308.51008043 6.69368553 308.50006294 C5.79039355 308.50452439 4.88710157 308.50898583 3.95643711 308.51358247 C-2.18861018 308.47439565 -2.18861018 308.47439565 -4.41691017 306.24609566 C-4.6676085 304.0507431 -4.6676085 304.0507431 -4.66859245 301.25790596 C-4.67380795 300.19620501 -4.67902344 299.13450405 -4.68439698 298.04063034 C-4.67993554 296.86497198 -4.6754741 295.68931362 -4.67087746 294.47802925 C-4.67399744 293.23633162 -4.67711742 291.99463398 -4.68033195 290.71530914 C-4.68695202 287.25753443 -4.6845383 283.79997546 -4.67835951 280.34221363 C-4.67385085 276.61755996 -4.68081086 272.8929257 -4.68631935 269.16827583 C-4.69523202 261.86727689 -4.69328303 254.56631897 -4.68749407 247.26531839 C-4.68298493 241.3338382 -4.68236142 235.40236955 -4.6845417 229.47088814 C-4.68484817 228.62802675 -4.68515463 227.78516536 -4.68547039 226.91676271 C-4.68610981 225.20472924 -4.68675824 223.49269577 -4.68741557 221.7806623 C-4.69312435 205.71119736 -4.68655239 189.6417552 -4.67581484 173.572294 C-4.66687883 159.77149251 -4.66843072 145.97072466 -4.67765236 132.16992378 C-4.68834533 116.15959366 -4.69257498 100.14928354 -4.68642783 84.13895035 C-4.68579071 82.43306796 -4.68516196 80.72718557 -4.6845417 79.02130318 C-4.68423315 78.18188506 -4.6839246 77.34246693 -4.6836067 76.4776119 C-4.68187683 70.55039833 -4.68480113 64.6231974 -4.68950081 58.69598579 C-4.69509885 51.47679285 -4.69361598 44.25764342 -4.68293932 37.03845549 C-4.67766803 33.3521844 -4.6756505 29.66598597 -4.68223763 25.97971535 C-4.68925734 21.99115612 -4.68089939 18.00271696 -4.67087746 14.01416206 C-4.6753389 12.8385037 -4.67980034 11.66284534 -4.68439698 10.45156097 C-4.67918149 9.38986002 -4.67396599 8.32815907 -4.66859245 7.23428535 C-4.66826775 6.3126491 -4.66794304 5.39101284 -4.6676085 4.44144821 C-4.29423283 1.17181639 -3.23096206 0.3289844 0 0 Z " fill="#FDFEFD" transform="translate(141.4169101715088,101.75390434265137)"/>
<path d="M0 0 C2.83331302 0.91677766 4.12042953 1.89603578 6.21861744 3.98428726 C6.90703724 4.6599826 7.59545704 5.33567795 8.30473804 6.03184891 C9.04417149 6.77780823 9.78360493 7.52376755 10.54544544 8.2923317 C11.33621479 9.07448547 12.12698414 9.85663925 12.94171619 10.66249466 C15.55454486 13.25260707 18.15234448 15.85721247 20.74930286 18.46323013 C22.55768319 20.26637793 24.36658412 22.06900376 26.17598438 23.87112808 C29.96616291 27.65089219 33.74890704 31.43789558 37.52640247 35.23031998 C41.89306346 39.61391449 46.27587454 43.9808605 50.66712075 48.33981538 C54.89270418 52.53549908 59.10425245 56.74506267 63.31022167 60.96041489 C65.10102106 62.75203609 66.89569001 64.53979794 68.69422817 66.32365036 C71.20367732 68.81573842 73.69671248 71.32316507 76.18607044 73.83530045 C76.93562504 74.57316284 77.68517963 75.31102524 78.45744801 76.0712471 C79.46892902 77.10170906 79.46892902 77.10170906 80.500844 78.15298843 C81.09167176 78.7444025 81.68249952 79.33581657 82.29123116 79.94515228 C83.92832709 82.40196365 83.92312485 83.92694708 83.54227161 86.82260513 C81.09716054 89.26771621 79.74846611 89.07209534 76.41009998 89.11587906 C75.6973592 89.11497269 74.98461842 89.11406631 74.25027943 89.11313248 C73.49884663 89.1198497 72.74741383 89.12656693 71.97321033 89.1334877 C69.48053906 89.1525373 66.98813622 89.15639587 64.49539661 89.15854263 C62.76384844 89.16496757 61.03230137 89.1716957 59.3007555 89.17871475 C55.6657405 89.19070622 52.03082064 89.19439385 48.39578724 89.1932106 C43.74402109 89.19300772 39.09286803 89.22026878 34.44124699 89.25475502 C30.86208786 89.27702928 27.28307589 89.28104793 23.70385456 89.27999115 C21.98948276 89.2823479 20.27510694 89.29117564 18.56080341 89.30665588 C16.15738501 89.32631969 13.75528292 89.32047638 11.35184193 89.30844498 C10.64719807 89.31968399 9.94255421 89.330923 9.2165575 89.34250259 C4.20359279 89.27894497 1.35118668 88.04274755 -2.45772839 84.82260513 C-5.71907442 80.82420942 -5.88860183 77.10534394 -5.84591198 72.12656021 C-5.85116894 71.36826416 -5.8564259 70.60996811 -5.86184216 69.82869339 C-5.875001 67.33296231 -5.86632164 64.83787345 -5.85616589 62.34213638 C-5.85818718 60.6052933 -5.86109908 58.86845105 -5.8648634 57.13161087 C-5.86928062 53.49768338 -5.86287278 49.86397752 -5.84884167 46.23007584 C-5.83171176 41.56574498 -5.84161863 36.90193055 -5.85955906 32.23761845 C-5.87038061 28.65432694 -5.86695875 25.07115868 -5.85917568 21.48786354 C-5.85717114 19.76741538 -5.85964185 18.04695612 -5.86661434 16.32652092 C-5.87420642 13.92753254 -5.86265885 11.52939146 -5.84591198 9.13046646 C-5.85198467 8.41615463 -5.85805737 7.7018428 -5.86431408 6.96588516 C-5.83867931 4.99065018 -5.83867931 4.99065018 -5.45772839 1.82260513 C-2.45772839 -0.17739487 -2.45772839 -0.17739487 0 0 Z " fill="#F7FCF9" transform="translate(291.4577283859253,102.17739486694336)"/>
<path d="M0 0 C4.56039485 3.82012231 8.91482126 7.76587368 13.11889648 11.97363281 C13.68562576 12.53700348 14.25235504 13.10037415 14.83625793 13.68081665 C16.68382009 15.51898076 18.52768449 17.36079681 20.37109375 19.203125 C21.66139085 20.49020541 22.9517617 21.77721188 24.24220276 23.06414795 C26.93269285 25.74867744 29.62113567 28.43523817 32.30834961 31.12304688 C35.75904159 34.57384115 39.21660143 38.01766624 42.67590237 41.45982742 C45.33604619 44.10888971 47.99167014 46.76244688 50.64601326 49.41732025 C51.91991106 50.6900353 53.19543688 51.96112291 54.47259331 53.23056793 C56.24877374 54.99701177 58.01857858 56.76960448 59.78686523 58.54394531 C60.31821075 59.06967133 60.84955627 59.59539734 61.39700317 60.13705444 C65 63.77167415 65 63.77167415 65 66 C56.82037612 66.04628728 48.64080673 66.08185072 40.46108437 66.10362434 C36.66313688 66.11407321 32.86527882 66.12825236 29.06738281 66.15087891 C25.40398654 66.17256821 21.74067643 66.18456031 18.07722092 66.18975449 C16.67773456 66.19345731 15.27825305 66.20068777 13.87880325 66.21146011 C11.92266669 66.22592225 9.96644391 66.22681647 8.01025391 66.22705078 C6.33813339 66.23371262 6.33813339 66.23371262 4.63223267 66.24050903 C2 66 2 66 0 64 C-0.24050903 61.32980347 -0.24050903 61.32980347 -0.22705078 57.89794922 C-0.22689972 56.61677216 -0.22674866 55.33559509 -0.22659302 54.01559448 C-0.21637895 52.61195726 -0.20594695 51.2083216 -0.1953125 49.8046875 C-0.19158291 48.37265215 -0.18873569 46.94061425 -0.18673706 45.50857544 C-0.17909627 41.73721283 -0.15944408 37.96600396 -0.1373291 34.19470215 C-0.11688019 30.34727051 -0.1077374 26.49981406 -0.09765625 22.65234375 C-0.0761985 15.10149236 -0.04205732 7.55076771 0 0 Z " fill="#0DB649" transform="translate(295,117)"/>
<path d="M0 0 C1.09127578 0.00566899 1.09127578 0.00566899 2.20459753 0.0114525 C3.36167286 0.00571418 3.36167286 0.00571418 4.54212344 -0.00014007 C7.14086978 -0.01050339 9.73939654 -0.00647167 12.33815771 -0.0025093 C14.19563254 -0.00685394 16.05310558 -0.01203625 17.91057593 -0.01799697 C22.9663029 -0.03142499 28.02195529 -0.03196142 33.07769662 -0.02943367 C37.29263708 -0.02836652 41.50756229 -0.03324075 45.72249949 -0.03803909 C55.66324474 -0.04914745 65.60395222 -0.04956423 75.54470068 -0.04352492 C85.81257717 -0.03748295 96.08031669 -0.0497988 106.3481698 -0.07109499 C115.15243933 -0.08868669 123.95666517 -0.0947162 132.76095164 -0.09145725 C138.02434424 -0.08964034 143.28763916 -0.09232099 148.55101591 -0.10617179 C153.49958176 -0.11870602 158.44793349 -0.11684798 163.39649588 -0.1037609 C165.21581537 -0.10138591 167.03514973 -0.10416257 168.85445219 -0.11238402 C171.33209625 -0.12277569 173.80901168 -0.11481258 176.28662878 -0.10207289 C177.37455848 -0.11313432 177.37455848 -0.11313432 178.48446655 -0.12441921 C181.39558293 -0.09278139 183.35464815 -0.03894055 185.79488474 1.63147527 C186.80910498 3.27214891 186.80910498 3.27214891 186.55910498 5.89714891 C185.80910498 8.27214891 185.80910498 8.27214891 184.80910498 9.27214891 C182.36229333 9.37649099 179.94346354 9.41547887 177.49590307 9.4125908 C176.7212904 9.41556192 175.94667772 9.41853305 175.14859194 9.4215942 C172.5329775 9.43031919 169.91740863 9.43179264 167.30178076 9.43328172 C165.43460243 9.4379072 163.56742505 9.44293149 161.70024878 9.44832689 C156.61349229 9.46147869 151.52674902 9.46790121 146.43997818 9.47233754 C143.26547096 9.47526372 140.09096739 9.47936764 136.916462 9.48384172 C126.99432717 9.4975238 117.07220063 9.50718704 107.15005702 9.51104361 C95.67750226 9.51552666 84.2050665 9.53308305 72.73254794 9.5620442 C63.87734999 9.583626 55.0221856 9.59374601 46.16696161 9.59508473 C40.87224637 9.59613525 35.57764289 9.60209535 30.28295523 9.61990434 C25.30404674 9.63632466 20.32533474 9.63857006 15.3464089 9.62976533 C13.51579775 9.62899171 11.68517629 9.63338016 9.85459143 9.64322358 C7.36158164 9.65584604 4.869278 9.65011977 2.37627417 9.63964158 C1.64641464 9.64769799 0.9165551 9.65575439 0.16457862 9.66405493 C-2.7775677 9.63499582 -4.72750795 9.59763947 -7.17556185 7.87808686 C-8.19089502 6.27214891 -8.19089502 6.27214891 -8.00339502 4.20964891 C-6.26062741 0.05381844 -4.19164699 0.03701246 0 0 Z " fill="#14B84E" transform="translate(163.19089502096176,210.7278510928154)"/>
<path d="M0 0 C1.09127578 0.00566899 1.09127578 0.00566899 2.20459753 0.0114525 C3.36167286 0.00571418 3.36167286 0.00571418 4.54212344 -0.00014007 C7.14086978 -0.01050339 9.73939654 -0.00647167 12.33815771 -0.0025093 C14.19563254 -0.00685394 16.05310558 -0.01203625 17.91057593 -0.01799697 C22.9663029 -0.03142499 28.02195529 -0.03196142 33.07769662 -0.02943367 C37.29263708 -0.02836652 41.50756229 -0.03324075 45.72249949 -0.03803909 C55.66324474 -0.04914745 65.60395222 -0.04956423 75.54470068 -0.04352492 C85.81257717 -0.03748295 96.08031669 -0.0497988 106.3481698 -0.07109499 C115.15243933 -0.08868669 123.95666517 -0.0947162 132.76095164 -0.09145725 C138.02434424 -0.08964034 143.28763916 -0.09232099 148.55101591 -0.10617179 C153.49958176 -0.11870602 158.44793349 -0.11684798 163.39649588 -0.1037609 C165.21581537 -0.10138591 167.03514973 -0.10416257 168.85445219 -0.11238402 C171.33209625 -0.12277569 173.80901168 -0.11481258 176.28662878 -0.10207289 C177.37455848 -0.11313432 177.37455848 -0.11313432 178.48446655 -0.12441921 C181.39436137 -0.09279467 183.35307303 -0.04063404 185.79097849 1.63147527 C186.80910498 3.27214891 186.80910498 3.27214891 186.62160498 5.89714891 C185.80910498 8.27214891 185.80910498 8.27214891 183.80910498 9.27214891 C181.33248112 9.3719484 178.88386074 9.41112926 176.4068833 9.40586168 C175.24874963 9.40926001 175.24874963 9.40926001 174.06721932 9.412727 C171.46619227 9.41908431 168.86521709 9.41823653 166.2641831 9.41741258 C164.40508716 9.42040295 162.54599184 9.4238052 160.68689734 9.42759019 C155.62712218 9.43644584 150.56736392 9.43876893 145.50758177 9.43940598 C141.29006606 9.44035366 137.07255432 9.44403025 132.85504013 9.44757807 C122.9095506 9.45572826 112.96407012 9.45816176 103.01857764 9.45745164 C92.74276028 9.4568504 82.46699534 9.46741021 72.19119126 9.4831953 C63.38184825 9.49624788 54.57252243 9.50163652 45.76316983 9.50099623 C40.49591582 9.50074061 35.2287084 9.50362707 29.96146399 9.51417428 C25.01048201 9.52381718 20.0595915 9.52396079 15.1086064 9.51665765 C13.28725368 9.51560711 11.46589538 9.51800229 9.64455229 9.52401811 C7.16670094 9.53167495 4.68917053 9.52713558 2.21132666 9.51938707 C1.1190277 9.52710241 1.1190277 9.52710241 0.0046621 9.53497362 C-4.96262358 9.50042035 -4.96262358 9.50042035 -7.19089502 7.27214891 C-7.44089502 4.77214891 -7.44089502 4.77214891 -7.19089502 2.27214891 C-4.73077803 -0.18796808 -3.35757735 0.02964758 0 0 Z " fill="#15B94F" transform="translate(163.19089502096176,319.7278510928154)"/>
<path d="M0 0 C1.10834107 0.0023229 1.10834107 0.0023229 2.23907286 0.00469273 C3.01847465 0.00242718 3.79787645 0.00016162 4.60089648 -0.00217259 C7.23266846 -0.00854166 9.86438933 -0.00768138 12.4961682 -0.00685817 C14.37482082 -0.00984785 16.25347282 -0.01324993 18.13212401 -0.01703578 C23.24980773 -0.02589935 28.36747476 -0.02821488 33.48516542 -0.02885157 C37.74985217 -0.02979867 42.01453498 -0.03347465 46.27922022 -0.03702366 C56.33640151 -0.04517713 66.39357383 -0.04760708 76.45075804 -0.04689723 C86.84300193 -0.04629616 97.23519396 -0.05685185 107.62742472 -0.0726409 C116.53441127 -0.08569372 125.44138082 -0.09108208 134.34837687 -0.09044182 C139.67489037 -0.09018617 145.00135782 -0.093074 150.32786185 -0.10361987 C155.33546377 -0.11326301 160.34297526 -0.11340621 165.35058028 -0.10610324 C167.19289538 -0.10505267 169.035216 -0.10744803 170.87752157 -0.1134637 C173.3838891 -0.12112029 175.8899393 -0.1165813 178.39629942 -0.10883266 C179.13296274 -0.11397622 179.86962607 -0.11911978 180.62861252 -0.12441921 C185.65290673 -0.08986573 185.65290673 -0.08986573 187.88117796 2.1384055 C187.32562241 6.69396106 187.32562241 6.69396106 185.88117796 8.1384055 C183.43436632 8.24274758 181.01553652 8.28173546 178.56797606 8.2788474 C177.79336338 8.28181852 177.01875071 8.28478964 176.22066492 8.2878508 C173.60505048 8.29657578 170.98948161 8.29804923 168.37385374 8.29953831 C166.50667541 8.3041638 164.63949803 8.30918808 162.77232176 8.31458348 C157.68556528 8.32773529 152.59882201 8.33415781 147.51205117 8.33859414 C144.33754394 8.34152031 141.16304038 8.34562423 137.98853499 8.35009831 C128.06640015 8.3637804 118.14427362 8.37344364 108.22213 8.3773002 C96.74957524 8.38178325 85.27713948 8.39933964 73.80462092 8.4283008 C64.94942297 8.44988259 56.09425858 8.4600026 47.23903459 8.46134132 C41.94431936 8.46239185 36.64971588 8.46835195 31.35502821 8.48616093 C26.37611972 8.50258125 21.39740772 8.50482666 16.41848189 8.49602193 C14.58787073 8.49524831 12.75724927 8.49963675 10.92666441 8.50948018 C8.43365462 8.52210264 5.94135099 8.51637637 3.44834715 8.50589818 C2.71848762 8.51395458 1.98862809 8.52201099 1.2366516 8.53031152 C-1.7042147 8.50126506 -3.65698369 8.46126377 -6.10739511 6.74824971 C-7.11882204 5.1384055 -7.11882204 5.1384055 -6.86882204 3.0134055 C-5.42093013 -0.60632427 -3.66662013 0.01774968 0 0 Z " fill="#05B443" transform="translate(162.11882203817368,286.8615944981575)"/>
<path d="M0 0 C24.86875669 -0.0466634 49.73750684 -0.08196102 74.60629845 -0.10362434 C86.15258622 -0.11394911 97.69884684 -0.12803229 109.24511719 -0.15087891 C119.30558783 -0.17077612 129.36603881 -0.1837077 139.42652857 -0.18817699 C144.75641667 -0.19079061 150.08624851 -0.1969585 155.41611862 -0.21146011 C160.42780312 -0.22498614 165.43940792 -0.22923278 170.45110893 -0.22621536 C172.29503881 -0.22676777 174.13897122 -0.23077474 175.98288536 -0.23841095 C178.49148717 -0.24829442 180.99978414 -0.24599325 183.50839233 -0.24050903 C184.6144105 -0.24924756 184.6144105 -0.24924756 185.74277246 -0.25816262 C190.77175758 -0.22824242 190.77175758 -0.22824242 193 2 C192.44444444 6.55555556 192.44444444 6.55555556 191 8 C188.55318835 8.10434208 186.13435856 8.14332996 183.6867981 8.14044189 C182.91218542 8.14341302 182.13757274 8.14638414 181.33948696 8.1494453 C178.72387252 8.15817028 176.10830365 8.15964373 173.49267578 8.16113281 C171.62549745 8.16575829 169.75832007 8.17078258 167.8911438 8.17617798 C162.80438731 8.18932979 157.71764404 8.19575231 152.6308732 8.20018864 C149.45636598 8.20311481 146.28186241 8.20721873 143.10735703 8.21169281 C133.18522219 8.22537489 123.26309566 8.23503814 113.34095204 8.2388947 C101.86839728 8.24337775 90.39596152 8.26093414 78.92344296 8.2898953 C70.06824501 8.31147709 61.21308062 8.3215971 52.35785663 8.32293582 C47.06314139 8.32398634 41.76853791 8.32994645 36.47385025 8.34775543 C31.49494176 8.36417575 26.51622976 8.36642116 21.53730392 8.35761642 C19.70669277 8.3568428 17.87607131 8.36123125 16.04548645 8.37107468 C13.55247666 8.38369713 11.06017302 8.37797087 8.56716919 8.36749268 C7.83730966 8.37554908 7.10745013 8.38360548 6.35547364 8.39190602 C1.44486792 8.34340475 1.44486792 8.34340475 -0.97294807 6.47703171 C-1.48133878 5.74590101 -1.48133878 5.74590101 -2 5 C-1.34 3.35 -0.68 1.7 0 0 Z " fill="#05B443" transform="translate(157,245)"/>
<path d="M0 0 C1.09813538 0.00669217 1.09813538 0.00669217 2.21845531 0.01351953 C3.38271431 0.00883955 3.38271431 0.00883955 4.5704937 0.00406504 C7.18540133 -0.00394675 9.80007894 0.00242097 12.41498852 0.00869775 C14.28393725 0.00598929 16.15288493 0.00242919 18.02183056 -0.00192237 C23.10848751 -0.01106598 28.19506364 -0.00749401 33.28172207 -0.0011642 C38.59527085 0.00388561 43.90881253 -0.0007928 49.22236156 -0.00393653 C58.1469348 -0.00757916 67.07147498 -0.00276931 75.99604321 0.00674462 C86.32639719 0.01762973 96.65667224 0.01410437 106.98702431 0.00309181 C115.84308042 -0.00597263 124.69911272 -0.00727048 133.55517197 -0.00203085 C138.85036609 0.0010935 144.14552307 0.00148549 149.44071484 -0.00510383 C154.41796994 -0.01086443 159.39512288 -0.00690407 164.37236691 0.00468469 C166.20339189 0.00733818 168.03442541 0.00655451 169.86544704 0.00215936 C172.35644375 -0.00327048 174.84710889 0.00350655 177.33808422 0.01351953 C178.4362196 0.00682736 178.4362196 0.00682736 179.55653954 0 C184.54996961 0.03918665 184.54996961 0.03918665 186.77826977 2.26748681 C186.22271421 6.82304237 186.22271421 6.82304237 184.77826977 8.26748681 C182.31425484 8.36740857 179.8782097 8.40190411 177.41364574 8.39447045 C176.2434847 8.39681044 176.2434847 8.39681044 175.04968405 8.3991977 C172.41557405 8.4032108 169.7815209 8.40001686 167.14741039 8.39688134 C165.26713559 8.39823525 163.38686106 8.40001512 161.50658703 8.4021914 C156.38483504 8.40676704 151.2631031 8.40497564 146.14135075 8.40181231 C140.79396413 8.39928938 135.4465793 8.40162606 130.09919262 8.40319848 C121.11737794 8.40502037 112.13557148 8.40261335 103.15375805 8.3978579 C92.75355671 8.39241525 82.35337498 8.39417789 71.95317411 8.39968431 C63.04110848 8.40421488 54.12904877 8.40486626 45.21698236 8.40224564 C39.88660358 8.40068256 34.55623403 8.40048995 29.22585583 8.40378213 C24.21581443 8.40666004 19.20579842 8.40468664 14.19575977 8.39888787 C12.35141384 8.39755984 10.50706579 8.39795512 8.66272068 8.40015054 C6.15608236 8.40286036 3.64952676 8.399483 1.14289379 8.39447045 C0.40331763 8.39670117 -0.33625854 8.3989319 -1.0982461 8.40123022 C-6.10758038 8.38163666 -6.10758038 8.38163666 -7.22173023 7.26748681 C-7.40923023 4.82998681 -7.40923023 4.82998681 -7.22173023 2.26748681 C-4.75511923 -0.19912419 -3.36618699 0.02641663 0 0 Z " fill="#05B443" transform="translate(163.22173023223877,361.7325131893158)"/>
<path d="M0 0 C1.28759766 1.75244141 1.28759766 1.75244141 2.2890625 4.2265625 C2.7005957 5.22333008 3.11212891 6.22009766 3.53613281 7.24707031 C4.02472892 8.4977969 4.51261481 9.74880104 5 11 C5.63564903 12.5872123 6.27210163 14.17410293 6.90917969 15.76074219 C8.73053496 20.32709357 10.50717429 24.90954214 12.26806641 29.49951172 C13.38214492 32.39356041 14.51332368 35.28057975 15.64453125 38.16796875 C16.35523227 40.01521538 17.06490522 41.86285794 17.7734375 43.7109375 C18.11289398 44.5693222 18.45235046 45.42770691 18.80209351 46.31210327 C21.58303751 53.66950561 21.58303751 53.66950561 20 58 C17.6875 58.6875 17.6875 58.6875 15 59 C12.26267907 56.89443468 11.28640689 54.65106065 10.17578125 51.4375 C9.86962891 50.55835938 9.56347656 49.67921875 9.24804688 48.7734375 C8.93931641 47.85820312 8.63058594 46.94296875 8.3125 46 C7.99216797 45.08476562 7.67183594 44.16953125 7.34179688 43.2265625 C5 36.4158782 5 36.4158782 5 33 C0.05 33.33 -4.9 33.66 -10 34 C-10.62648437 35.63710937 -11.25296875 37.27421875 -11.8984375 38.9609375 C-12.72368 41.09906578 -13.54921604 43.23708078 -14.375 45.375 C-14.7875 46.45523438 -15.2 47.53546875 -15.625 48.6484375 C-16.02460938 49.6796875 -16.42421875 50.7109375 -16.8359375 51.7734375 C-17.38580322 53.20308838 -17.38580322 53.20308838 -17.94677734 54.66162109 C-19 57 -19 57 -21 59 C-25.55555556 58.44444444 -25.55555556 58.44444444 -27 57 C-26.63055267 49.97742626 -24.37418198 44.03700207 -21.81640625 37.53515625 C-21.40083969 36.4612413 -20.98527313 35.38732635 -20.55711365 34.28086853 C-19.68140945 32.02431214 -18.80120231 29.76949861 -17.91674805 27.51635742 C-16.55915393 24.05396623 -15.21906602 20.58515837 -13.88085938 17.11523438 C-13.02707072 14.92147422 -12.17228809 12.7281006 -11.31640625 10.53515625 C-10.91426407 9.49359879 -10.51212189 8.45204132 -10.09779358 7.37892151 C-9.72077805 6.42380173 -9.34376251 5.46868195 -8.95532227 4.48461914 C-8.62524673 3.64048965 -8.2951712 2.79636017 -7.95509338 1.926651 C-6.09168462 -1.83228862 -3.57708218 -1.17432618 0 0 Z " fill="#0BB648" transform="translate(206,132)"/>
<path d="M0 0 C4.27525885 3.66450758 8.29649677 7.16898997 12.25 11.1171875 C12.71180664 11.57803741 13.17361328 12.03888733 13.64941406 12.51370239 C14.61515943 13.47877438 15.57967197 14.44508158 16.54296875 15.41259766 C17.99369065 16.8686674 19.44966659 18.31932776 20.90625 19.76953125 C25.68097302 24.54201701 30.32745681 29.36196164 34.66015625 34.54345703 C35.95728454 36.12677098 35.95728454 36.12677098 38 37 C38 37.66 38 38.32 38 39 C25.46 39 12.92 39 0 39 C0 26.13 0 13.26 0 0 Z " fill="#F7FCF9" transform="translate(303,136)"/>
<path d="M0 0 C2.5 -0.3125 2.5 -0.3125 5 0 C7 2 7 2 7.125 5.625 C7.08375 6.73875 7.0425 7.8525 7 9 C8.093125 8.938125 9.18625 8.87625 10.3125 8.8125 C14 9 14 9 16 10.1875 C17 12 17 12 16.75 14.625 C16 17 16 17 15 18 C12.32941149 18.14115161 9.67567762 18.04247107 7 18 C7.04125 19.27875 7.0825 20.5575 7.125 21.875 C7.1953125 24.0546875 7.1953125 24.0546875 7 26 C5 28 5 28 2.5 28.3125 C1.675 28.209375 0.85 28.10625 0 28 C-2.4294516 24.3558226 -2.16179575 22.28758728 -2 18 C-3.918125 18.061875 -3.918125 18.061875 -5.875 18.125 C-8.0546875 18.1953125 -8.0546875 18.1953125 -10 18 C-10.66 17.34 -11.32 16.68 -12 16 C-11.67028521 12.70285207 -11.3773161 11.3773161 -9 9 C-5.375 8.875 -5.375 8.875 -2 9 C-2.04125 8.071875 -2.0825 7.14375 -2.125 6.1875 C-2 3 -2 3 0 0 Z " fill="#13B84E" transform="translate(228,120)"/>
<path d="M0 0 C0.66 0 1.32 0 2 0 C3.31626692 3.61973402 4 6.09567131 4 10 C2.02 10 0.04 10 -2 10 C-1.54177532 6.53058454 -1.10868317 3.32604951 0 0 Z " fill="#D6F2E0" transform="translate(202,147)"/>
</svg>
